<?xml version="1.0"?>
<svg xmlns="http://www.w3.org/2000/svg" xmlns:xlink="http://www.w3.org/1999/xlink" xmlns:svgjs="http://svgjs.com/svgjs" version="1.1" width="512" height="512" x="0" y="0" viewBox="0 0 24 24" style="enable-background:new 0 0 512 512" xml:space="preserve"><g><path xmlns="http://www.w3.org/2000/svg" d="m12 24c-6.617 0-12-5.383-12-12s5.383-12 12-12 12 5.383 12 12-5.383 12-12 12zm0-23c-6.065 0-11 4.935-11 11s4.935 11 11 11 11-4.935 11-11-4.935-11-11-11z" fill="#d1a841" data-original="#000000" style=""/><path xmlns="http://www.w3.org/2000/svg" d="m17.37 17h-10.74c-.244 0-.452-.176-.493-.416l-1.13-6.667c-.031-.186.044-.373.194-.485s.35-.132.52-.047l3.245 1.6 2.596-4.726c.175-.318.701-.318.876 0l2.596 4.726 3.245-1.6c.169-.085.37-.065.52.047s.226.3.194.485l-1.13 6.667c-.041.24-.25.416-.493.416zm-10.317-1h9.895l.896-5.286-2.796 1.379c-.241.12-.531.027-.659-.207l-2.389-4.348-2.388 4.348c-.128.234-.417.327-.659.207l-2.796-1.379z" fill="#d1a841" data-original="#000000" style=""/></g></svg>
