<?xml version="1.0"?>
<svg xmlns="http://www.w3.org/2000/svg" xmlns:xlink="http://www.w3.org/1999/xlink" version="1.1" id="Capa_1" x="0px" y="0px" viewBox="0 0 56 56" style="enable-background:new 0 0 56 56;" xml:space="preserve" width="512px" height="512px" class=""><g><g>
	<path d="M16,17.999c0.256,0,0.512-0.098,0.707-0.293L27,7.413v35.586c0,0.553,0.448,1,1,1s1-0.447,1-1V7.413l10.293,10.293   c0.195,0.195,0.451,0.293,0.707,0.293s0.512-0.098,0.707-0.293c0.391-0.391,0.391-1.023,0-1.414L28.708,4.293   c-0.092-0.093-0.203-0.166-0.326-0.217c-0.244-0.101-0.52-0.101-0.764,0c-0.123,0.051-0.233,0.124-0.326,0.217L15.293,16.292   c-0.391,0.391-0.391,1.023,0,1.414C15.488,17.902,15.744,17.999,16,17.999z" data-original="#000000" class="active-path" data-old_color="#000000" fill="#000000"/>
	<path d="M55,37.999c-0.552,0-1,0.447-1,1v11H2v-11c0-0.553-0.448-1-1-1s-1,0.447-1,1v13h56v-13C56,38.447,55.552,37.999,55,37.999z   " data-original="#000000" class="active-path" data-old_color="#000000" fill="#000000"/>
</g></g> </svg>
