<svg width="290" height="122" viewBox="0 0 290 122" fill="none" xmlns="http://www.w3.org/2000/svg">
<path d="M128.006 14.4998C128.055 14.2277 128.105 13.9556 128.154 13.6587C129.045 12.8669 129.936 12.8669 130.134 14.5495C130.233 15.0444 130.233 15.5392 130.134 16.0341V17.5188V18.9044L130.332 20.1911C130.395 20.7604 130.579 21.3296 130.756 21.873L130.758 21.8799L130.766 21.9046C130.862 22.2004 130.956 22.4885 131.024 22.7645C131.618 24.3481 132.509 25.8328 133.697 27.2184C134.132 27.7402 134.592 28.2534 135.06 28.7756L135.063 28.7789L135.064 28.7802C136.194 30.0396 137.37 31.3513 138.349 32.959C139.833 35.2355 140.625 37.8089 140.823 40.3823C140.823 40.5306 140.848 40.7037 140.873 40.8767L140.873 40.8771L140.876 40.8999C140.899 41.0655 140.922 41.23 140.922 41.372V42.3618V45.43V45.529H140.823H140.625H140.229L139.339 45.628L137.953 45.727C137.495 45.7924 137.08 45.7713 136.651 45.7495L136.651 45.7495C136.431 45.7383 136.208 45.727 135.973 45.727C133.4 45.529 130.728 44.7372 128.451 43.2526C126.373 41.7679 124.789 39.6894 123.601 37.6109C122.117 34.9386 121.226 32.0683 120.632 29.099C120.592 28.1813 120.52 27.2796 120.448 26.3812L120.446 26.3617C120.341 25.038 120.236 23.7208 120.236 22.3686C120.236 20.3891 120.533 18.4096 120.929 16.43C121.325 14.4505 121.919 12.57 122.612 10.6894C123.601 8.21502 124.789 5.93857 126.571 3.86007C126.734 3.69661 126.868 3.53314 126.987 3.3862C127.085 3.26621 127.174 3.15724 127.263 3.06826L128.154 2.17747C128.543 1.83712 128.956 1.52065 129.369 1.20459L129.391 1.18771C129.812 0.866041 130.233 0.544369 130.629 0.197952L130.827 0H130.926V0.0989761L131.024 0.494881L131.222 1.28669L131.618 2.77133C131.668 2.91981 131.693 3.04354 131.717 3.16727C131.742 3.29098 131.767 3.41469 131.816 3.56314L132.014 4.05802L132.311 4.94881C133.796 9.1058 136.171 12.8669 138.844 16.529C139.083 16.8685 139.323 17.208 139.564 17.5484L139.565 17.5499L139.566 17.5515L139.568 17.5532L139.574 17.5624C141.227 19.8962 142.908 22.2689 144.287 24.942C145.079 26.4266 145.772 28.0102 146.267 29.6928C146.514 30.3515 146.692 31.0786 146.86 31.7602L146.862 31.7695V31.771C146.895 31.9051 146.927 32.0375 146.96 32.1672C147.009 32.6124 147.083 33.0328 147.157 33.4532L147.158 33.4539C147.232 33.8746 147.306 34.2952 147.356 34.7406C147.751 37.6109 147.751 40.5802 147.455 43.4505C147.141 46.0358 146.394 48.4969 145.654 50.9323L145.653 50.9353V50.9371L145.652 50.9389L145.651 50.9408V50.9426L145.65 50.9444V50.9463L145.649 50.9481V50.9499L145.648 50.9517V50.9536L145.647 50.9554V50.9572L145.646 50.9591L145.645 50.9609V50.9627L145.644 50.9646V50.9664L145.643 50.9682V50.9703L145.611 51.0757C145.431 51.6692 145.251 52.2612 145.079 52.8532C144.98 53.348 144.832 53.8188 144.683 54.2888L144.675 54.313C144.53 54.7749 144.384 55.2373 144.287 55.7235C144.089 56.9113 143.495 57.7031 142.902 58.1979C142.769 58.2974 142.633 58.408 142.497 58.5195L142.492 58.5238L142.491 58.5243C141.816 59.0767 141.118 59.647 140.625 58.9898L140.724 58.7918C141.114 57.3538 141.53 55.9247 141.947 54.4966L141.949 54.4884C142.908 51.2011 143.865 47.9183 144.485 44.5392C144.881 42.3618 145.079 40.1843 145.079 38.1058C144.98 36.0273 144.782 33.9488 144.287 31.8703C143.495 28.4061 141.813 25.1399 139.734 22.0717C139.098 21.1628 138.436 20.2486 137.765 19.3233L137.751 19.3046C135.507 16.2051 133.17 12.9794 131.42 9.40273C131.188 9.01605 131.017 8.56896 130.858 8.15585L130.857 8.15321C130.813 8.03853 130.771 7.92649 130.728 7.81911C130.579 7.5222 130.455 7.20055 130.332 6.87889C130.208 6.5572 130.084 6.23551 129.936 5.93857C129.892 5.80697 129.848 5.65582 129.804 5.50255L129.787 5.44369C129.738 5.27048 129.688 5.09727 129.639 4.94881L129.364 4.67381C129.333 4.70362 129.282 4.74718 129.225 4.79677L129.216 4.80473L129.215 4.80521C129.126 4.88212 129.022 4.97217 128.946 5.04778L128.352 5.74061C128.154 5.98806 127.981 6.23551 127.808 6.48296C127.635 6.7304 127.461 6.97783 127.263 7.22526C126.974 7.58757 126.737 8.00293 126.514 8.39367L126.513 8.39625L126.505 8.40977C126.427 8.54712 126.35 8.68128 126.274 8.80887C126.126 9.25098 125.924 9.63822 125.708 10.0523L125.708 10.0525L125.69 10.0862C125.622 10.2175 125.552 10.3518 125.482 10.4915C124.393 12.9659 123.502 15.6382 123.007 18.3106C122.315 22.5666 122.414 27.0205 123.502 31.0785C124.591 35.1365 126.769 38.8976 130.035 41.1741C130.232 41.3219 130.429 41.4452 130.627 41.5686L130.629 41.57C130.827 41.6937 131.025 41.8174 131.222 41.9659L131.223 41.9663C131.619 42.1641 132.014 42.3619 132.509 42.4608L132.707 42.5597C133.301 42.7577 133.895 42.9556 134.489 43.0546C134.848 43.0546 135.182 43.108 135.502 43.1593C135.798 43.2068 136.084 43.2526 136.369 43.2526C136.564 43.2526 136.769 43.2632 136.977 43.274C137.406 43.2962 137.85 43.3191 138.25 43.2526H138.349V43.1536V43.0546V42.3618V41.6689L138.25 40.9761L138.151 39.5904C138.151 39.275 138.07 38.9997 137.987 38.7134L137.986 38.7108C137.938 38.5488 137.89 38.3832 137.854 38.2048C137.73 37.6474 137.528 37.1285 137.322 36.6002L137.316 36.5836L137.304 36.5538C137.187 36.2529 137.068 35.9484 136.963 35.6314C136.567 34.8396 136.171 34.0478 135.577 33.256C134.915 32.2881 134.148 31.3725 133.357 30.4286C132.611 29.5385 131.844 28.623 131.123 27.6143C129.639 25.6348 128.55 23.1604 128.154 20.686C128.121 20.4881 128.077 20.2901 128.033 20.0922L128.033 20.0921C127.945 19.6962 127.857 19.3004 127.857 18.9044L127.758 17.1229V16.2321L127.857 15.3413C127.906 15.0459 127.956 14.7749 128.005 14.5041L128.006 14.4998Z" fill="white"/>
<path d="M165.666 24.2491C164.478 25.3379 163.786 26.9215 163.192 28.4061C162.555 29.9509 162.253 31.5791 161.978 33.0609L161.978 33.0631L161.96 33.1571L161.935 33.2934L161.905 33.4539C161.608 35.0375 161.113 36.4232 160.222 37.6109C159.431 38.6007 158.54 39.4915 157.55 40.2833L156.758 40.8771L156.659 40.9761H156.56H156.461H156.362V40.8771V40.7781L156.263 40.0849L156.263 40.0846C156.164 39.194 156.065 38.3035 156.065 37.413V37.314C155.918 36.7974 155.936 36.2808 155.954 35.7643L155.954 35.7552L155.954 35.7536C155.96 35.5808 155.966 35.4082 155.966 35.2355C156.065 32.3652 156.461 29.4949 157.847 27.0205C159.134 24.5461 161.41 22.6655 164.083 21.4778C165.204 20.9499 166.414 20.51 167.624 20.0701C168.229 19.8502 168.833 19.6302 169.427 19.3993L170.714 18.9044L170.813 18.8054H170.912L171.011 19.1024C171.308 20.8839 171.506 22.6655 171.704 24.4471V25.5358C171.803 28.901 171.407 32.1672 170.318 35.1365C169.526 37.413 168.042 39.3925 166.26 40.9761C164.182 42.9556 161.608 44.4403 158.936 45.9249C157.451 46.7167 155.868 47.6075 154.383 48.5973C152.898 49.686 151.513 50.9727 150.622 52.5563L150.523 52.6553C150.818 53.2459 151.389 53.1757 151.988 53.1019L151.989 53.1017C152.194 53.0766 152.4 53.0512 152.601 53.0512C153.195 53.0512 153.69 52.7542 154.185 52.1604C154.581 51.6655 155.076 51.2696 155.67 50.8737C156.704 50.0826 157.888 49.5159 159.084 48.9437L159.093 48.9393C159.839 48.5824 160.59 48.2231 161.311 47.8054C162.643 47.0219 163.913 46.1143 165.219 45.1809L165.312 45.1147C165.625 44.8908 165.941 44.6655 166.26 44.4403C168.141 42.9556 169.922 41.174 171.11 39.0955C172.397 37.0171 173.188 34.7406 173.683 32.3652C174.277 29.1979 174.376 25.9317 174.178 22.6655L173.881 19.9932C173.782 19.0034 173.683 18.5085 173.287 16.7269L173.089 15.6382L172.99 15.3413V15.2423V15.1433H172.891L172.397 15.3413L170.417 16.1331L169.031 16.628C168.833 16.7269 168.635 16.8013 168.437 16.8755C168.239 16.9497 168.042 17.0239 167.844 17.1229C167.487 17.2656 167.126 17.4063 166.762 17.5479L166.759 17.5491C164.605 18.3889 162.368 19.261 160.42 20.785L159.332 21.7747L158.441 22.6655C158.292 22.814 158.144 22.9377 157.996 23.0614C157.847 23.1851 157.699 23.3089 157.55 23.4573L156.659 24.3481C155.472 26.1297 154.482 28.1092 153.987 30.1877C153.954 30.3195 153.91 30.4512 153.866 30.5829L153.866 30.5836C153.778 30.8475 153.69 31.1115 153.69 31.3754L153.492 32.6621C153.393 33.058 153.294 33.4539 153.294 33.9488L153.195 35.2355C153.195 36.4456 153.287 37.656 153.376 38.8352L153.378 38.8575V38.8585V38.8597C153.42 39.408 153.461 39.9495 153.492 40.4812L154.185 44.5392L154.383 45.7269L154.482 46.0239H154.581L154.68 45.9249L155.175 45.529L157.055 44.0444C158.253 43.1653 158.743 42.7379 159.251 42.2933L159.252 42.2927L159.276 42.2719C159.389 42.1729 159.504 42.0725 159.629 41.9659L160.618 40.9761C160.761 40.8335 160.903 40.6683 161.046 40.5021L161.064 40.4813C161.212 40.308 161.361 40.1348 161.509 39.9863C162.697 38.6007 163.588 36.8191 163.984 34.9386C164.104 34.378 164.208 33.8336 164.308 33.3054L164.311 33.2897C164.459 32.518 164.6 31.7809 164.775 31.0785C164.83 30.7531 164.943 30.4278 165.051 30.1188C165.14 29.8637 165.225 29.6197 165.27 29.3959C165.418 29.0996 165.542 28.8276 165.665 28.556L165.666 28.5545C165.79 28.2823 165.914 28.0102 166.062 27.7133C166.26 27.4164 166.458 27.1194 166.557 26.9215C166.755 26.6246 166.953 26.3276 167.052 26.0307C167.448 24.744 166.656 24.2491 165.666 24.2491Z" fill="white"/>
<path d="M175.777 117.466C177.686 117.355 179.593 117.244 181.502 117.386C182.492 118.078 182.789 119.068 180.612 119.266C179.869 119.452 179.087 119.444 178.316 119.436L178.282 119.436C177.831 119.432 177.383 119.428 176.949 119.464L176.942 119.464C172.391 119.662 167.842 119.86 163.291 119.959C157.646 120.154 151.905 120.253 146.257 120.35H146.256L145.97 120.355C143.703 120.394 141.436 120.402 139.17 120.409L138.962 120.41H138.962C135.458 120.422 131.955 120.434 128.451 120.553C127.067 120.553 125.683 120.528 124.298 120.503L124.295 120.503H124.293L124.137 120.5C122.804 120.477 121.47 120.454 120.137 120.454C118.751 120.493 117.366 120.501 115.98 120.509H115.98H115.979C113.901 120.521 111.823 120.533 109.745 120.652C107.673 120.492 105.537 120.59 103.44 120.686L103.436 120.686H103.434H103.431L103.379 120.688C102.891 120.711 102.407 120.733 101.926 120.751C99.2685 120.864 96.6438 120.848 94.0143 120.832H94.0126L93.9107 120.831C91.9712 120.82 90.0288 120.808 88.0688 120.85C82.1303 121.048 76.0927 121.048 70.0552 121.048C67.5083 121.048 64.939 121.025 62.358 121.002L62.0136 120.999C59.2918 120.974 56.5575 120.949 53.8231 120.949C49.8654 120.998 45.9323 121.023 41.9993 121.048L41.9955 121.048L41.556 121.051C37.7682 121.075 33.9795 121.099 30.1678 121.147C29.1024 121.178 28.046 121.219 26.9938 121.261L26.7846 121.269H26.7835H26.7824C24.5838 121.357 22.3992 121.444 20.1712 121.444C18.2664 121.444 16.3857 121.371 14.5171 121.298L14.4061 121.294H14.4051H14.404H14.403C12.5236 121.22 10.656 121.147 8.78872 121.147C7.6011 121.147 6.41348 121.147 5.22585 121.246C3.84019 121.345 2.75145 121.147 1.95964 120.751C1.81192 120.677 1.65277 120.603 1.49184 120.528L1.45864 120.513C0.551343 120.093 -0.404151 119.65 0.178073 119.068H0.376025C5.11136 118.594 9.84669 118.625 14.6322 118.656L14.6698 118.656C15.8733 118.664 17.08 118.672 18.2907 118.672C21.7915 118.738 25.3364 118.716 28.8665 118.694L28.8776 118.694C30.6335 118.683 32.3857 118.672 34.1269 118.672C35.6398 118.672 37.1419 118.683 38.6402 118.694H38.6416H38.6431H38.6445H38.646H38.6474H38.6489H38.6503H38.6518H38.6533H38.6547H38.6562H38.6577H38.6592H38.6606H38.6621H38.6636H38.6651L38.6751 118.694C41.674 118.716 44.6584 118.738 47.6866 118.672C51.6469 118.606 55.6521 118.628 59.6417 118.65H59.6431H59.6442H59.6456H59.6467H59.6481L59.6551 118.65C61.6433 118.661 63.6277 118.672 65.6013 118.672C65.8982 118.672 66.2199 118.697 66.5415 118.722C66.8632 118.747 67.1849 118.771 67.4818 118.771L86.4852 118.573C89.9494 118.573 93.3146 118.573 96.7788 118.672C103.103 118.732 109.427 118.578 115.752 118.425L115.842 118.423C120.078 118.32 124.314 118.217 128.55 118.177C128.836 118.177 129.117 118.182 129.396 118.188L129.509 118.19C130.443 118.209 131.349 118.226 132.311 118.078H132.509C134.403 118.138 136.333 118.091 138.277 118.043C139.583 118.011 140.896 117.98 142.209 117.98H156.362C162.001 117.98 167.543 117.788 173.177 117.594L173.196 117.593H173.198H173.199L173.485 117.584C174.249 117.555 175.012 117.511 175.776 117.466L175.777 117.466Z" fill="white"/>
<path d="M287.276 117.536L287.274 117.536C287.185 117.553 287.097 117.569 287.011 117.584C286.661 117.584 286.318 117.59 285.978 117.596C284.97 117.615 283.989 117.633 282.953 117.485C282.408 117.435 281.839 117.386 281.27 117.336C280.701 117.287 280.132 117.237 279.588 117.188C279.386 117.188 279.192 117.194 279 117.2C278.437 117.219 277.902 117.236 277.311 117.089H277.212C277.014 117.221 276.816 117.177 276.618 117.133C276.519 117.111 276.42 117.089 276.321 117.089C275.19 117.043 274.038 117.123 272.884 117.202L272.855 117.204C271.495 117.299 270.133 117.393 268.799 117.287C268.007 117.188 267.216 117.188 266.325 117.188C264.841 117.188 263.358 117.287 261.874 117.386L261.871 117.386C261.773 117.386 261.699 117.361 261.625 117.337L261.623 117.336C261.549 117.311 261.475 117.287 261.376 117.287C259.99 117.287 258.506 117.287 257.12 117.485C256.588 117.533 256.056 117.558 255.536 117.582C254.991 117.607 254.459 117.632 253.953 117.683C253.31 117.732 252.691 117.782 252.072 117.831C251.454 117.881 250.835 117.93 250.192 117.98C250.013 117.992 249.832 118.003 249.65 118.015H249.648C248.424 118.09 247.155 118.168 246.035 118.771H245.936C245.849 119.463 246.14 119.928 246.413 120.364C246.453 120.427 246.492 120.49 246.53 120.553C246.728 120.949 247.024 121.048 247.321 120.949C247.341 120.942 247.361 120.936 247.38 120.929L247.403 120.921C247.435 120.91 247.466 120.899 247.496 120.888C247.705 120.813 247.878 120.751 248.113 120.751C248.509 120.707 248.905 120.741 249.301 120.775H249.301C249.796 120.818 250.291 120.861 250.786 120.751C251.181 120.701 251.578 120.627 251.974 120.553C252.369 120.479 252.765 120.404 253.161 120.355L253.652 120.303L253.663 120.302C255.361 120.122 256.992 119.95 258.704 119.86C259.561 119.794 260.419 119.816 261.277 119.838C261.706 119.849 262.135 119.86 262.564 119.86C263.949 119.86 265.434 119.761 266.82 119.662C267.364 119.613 267.908 119.637 268.453 119.662C268.997 119.687 269.542 119.712 270.086 119.662C270.68 119.563 271.274 119.464 271.966 119.662C272.555 119.515 273.145 119.532 273.774 119.55L273.776 119.55C273.993 119.557 274.214 119.563 274.441 119.563C275.056 119.563 275.593 119.641 276.19 119.728H276.194C276.267 119.739 276.342 119.75 276.417 119.76L276.42 119.761C277.344 119.695 278.268 119.717 279.192 119.739C279.654 119.75 280.116 119.761 280.577 119.761H284.635C285.159 119.761 285.682 119.738 286.205 119.715L286.268 119.712L286.271 119.712C286.815 119.687 287.358 119.662 287.902 119.662C287.986 119.662 288.071 119.678 288.156 119.694C288.368 119.735 288.58 119.775 288.792 119.563C289.188 119.365 289.089 118.375 288.891 117.584C288.384 117.33 287.805 117.438 287.276 117.536Z" fill="white"/>
<path d="M59.92 103.92L54.76 103.8C54.4667 102.68 54.2933 97.64 54.24 88.68V85.84C54.24 83.5733 54.4533 81.8533 54.88 80.68C55.3067 79.48 56.2 78.52 57.56 77.8C58.2533 77.4533 59.2133 77.28 60.44 77.28C61.6933 77.28 62.6533 77.36 63.32 77.52C65.1067 77.8933 66.32 78.5867 66.96 79.6C67.6267 80.6133 67.96 81.9733 67.96 83.68C67.96 86.0533 67.3333 87.8 66.08 88.92C66.72 89 67.36 89.32 68 89.88C68.64 90.44 69.16 91.0133 69.56 91.6C70.2533 92.6667 70.6 94.12 70.6 95.96C70.6 98.84 69.72 100.893 67.96 102.12C66.2267 103.32 63.5467 103.92 59.92 103.92ZM57.44 84.44L57.52 89C57.5733 89 58.0267 88.9467 58.88 88.84C59.7333 88.7067 60.4533 88.5733 61.04 88.44C63.7333 87.8 65.08 86.2667 65.08 83.84C65.08 82.64 64.72 81.76 64 81.2C63.3067 80.64 62.3867 80.36 61.24 80.36C59.8 80.36 58.8267 80.6133 58.32 81.12C58.1067 81.3333 57.9333 81.52 57.8 81.68C57.6667 81.8133 57.5733 82.04 57.52 82.36C57.4667 82.68 57.4267 82.9067 57.4 83.04C57.4 83.1733 57.4 83.4267 57.4 83.8C57.4267 84.1733 57.44 84.3867 57.44 84.44ZM66.44 92.96C66.1733 92.6667 65.76 92.4 65.2 92.16C64.64 91.92 63.8267 91.8 62.76 91.8C61.72 91.8 59.9333 91.9733 57.4 92.32C57.4 96.48 57.4667 99.2933 57.6 100.76C60.72 100.76 62.9067 100.56 64.16 100.16C65.4133 99.7333 66.2533 99.2267 66.68 98.64C67.1333 98.0267 67.36 97.3867 67.36 96.72C67.36 96.0267 67.3467 95.5467 67.32 95.28C67.32 94.9867 67.24 94.6 67.08 94.12C66.9467 93.6133 66.7333 93.2267 66.44 92.96ZM75.1934 99.44C75.1934 97.3867 75.0601 93.92 74.7934 89.04C74.5534 84.1333 74.3401 81.0267 74.1534 79.72C74.1534 79.1333 74.3534 78.6267 74.7534 78.2C75.1534 77.7467 75.6068 77.52 76.1134 77.52C76.7534 77.52 77.1801 77.92 77.3934 78.72C77.8201 81.3867 78.0868 85.2267 78.1934 90.24C80.5934 88.0267 82.4468 86.1333 83.7534 84.56C85.0868 82.9867 86.4868 80.9733 87.9534 78.52C88.3801 77.8 89.0068 77.44 89.8334 77.44C90.2601 77.44 90.6068 77.56 90.8734 77.8C91.1668 78.0133 91.3134 78.28 91.3134 78.6C91.3134 79.4533 90.5534 80.9333 89.0334 83.04C87.5401 85.12 85.9534 87.1467 84.2734 89.12C86.5134 91.36 88.4334 93.9467 90.0334 96.88C90.2468 97.2533 90.5268 97.72 90.8734 98.28C91.2201 98.84 91.4868 99.28 91.6734 99.6C92.1801 100.48 92.4334 101.227 92.4334 101.84C92.4334 102.453 92.2734 102.96 91.9534 103.36C91.6601 103.733 91.2868 103.92 90.8334 103.92C90.3801 103.92 89.7934 103.333 89.0734 102.16C88.3534 100.96 87.3134 99.28 85.9534 97.12C84.6201 94.9333 83.2068 93.0133 81.7134 91.36C80.2201 92.8 79.1001 93.8 78.3534 94.36C78.4334 96.0667 78.4734 97.4933 78.4734 98.64C78.4734 99.76 78.4468 100.667 78.3934 101.36C78.2334 103.093 77.5268 103.96 76.2734 103.96C75.5001 103.96 75.1401 103.493 75.1934 102.56V99.44ZM117.95 83.16C117.95 84.5467 117.576 85.7067 116.83 86.64C116.11 87.5467 114.91 88.52 113.23 89.56C113.55 90.04 114.07 90.7733 114.79 91.76C115.51 92.7467 115.95 93.36 116.11 93.6L117.35 95.64C118.15 94.3333 118.616 93.3467 118.75 92.68C118.963 91.88 119.51 91.48 120.39 91.48C120.843 91.48 121.216 91.6133 121.51 91.88C121.803 92.12 121.95 92.4533 121.95 92.88C121.95 93.92 120.91 95.6933 118.83 98.2C119.656 99.8 120.27 101.187 120.67 102.36C120.616 102.76 120.43 103.107 120.11 103.4C119.79 103.693 119.43 103.84 119.03 103.84C118.63 103.84 118.27 103.68 117.95 103.36C117.736 103.04 117.563 102.68 117.43 102.28C117.296 101.88 117.07 101.307 116.75 100.56C115.523 101.867 114.496 102.76 113.67 103.24C112.843 103.693 111.883 103.92 110.79 103.92C109.723 103.92 108.643 103.493 107.55 102.64C106.456 101.787 105.63 100.733 105.07 99.48C104.51 98.36 104.23 97.24 104.23 96.12C104.23 94.36 104.683 92.9467 105.59 91.88C106.496 90.7867 107.83 89.7333 109.59 88.72C108.336 86.4533 107.71 84.5067 107.71 82.88C107.71 81.2533 108.203 79.96 109.19 79C110.203 78.04 111.416 77.56 112.83 77.56C114.243 77.56 115.443 78.1467 116.43 79.32C117.443 80.4933 117.95 81.7733 117.95 83.16ZM112.91 80.6C111.523 80.6 110.803 81.72 110.75 83.96C110.883 85.1067 111.27 86.2533 111.91 87.4C113.776 86.28 114.71 85.1733 114.71 84.08C114.71 82.96 114.51 82.0933 114.11 81.48C113.763 80.8933 113.363 80.6 112.91 80.6ZM110.75 100.52C112.136 100.52 113.67 99.6667 115.35 97.96C115.243 97.8 115.11 97.6 114.95 97.36C114.79 97.0933 114.55 96.7333 114.23 96.28C113.936 95.8 113.483 95.1467 112.87 94.32C112.283 93.4667 111.75 92.5733 111.27 91.64L110.95 91.08C110.096 91.6933 109.496 92.16 109.15 92.48C107.95 93.52 107.35 94.7333 107.35 96.12C107.35 97.48 107.816 98.6533 108.75 99.64C109.283 100.227 109.95 100.52 110.75 100.52ZM141.259 78.08L145.699 78C147.673 78 148.659 78.52 148.659 79.56C148.659 79.9333 148.606 80.2 148.499 80.36C148.393 80.4933 148.313 80.6 148.259 80.68C148.206 80.76 148.099 80.8267 147.939 80.88C147.619 80.9867 147.353 81.0533 147.139 81.08C146.926 81.1067 146.779 81.12 146.699 81.12C146.406 81.1733 145.913 81.2133 145.219 81.24C144.526 81.2667 143.513 81.28 142.179 81.28C140.873 81.28 139.259 81.2267 137.339 81.12V88.48H145.499C145.793 88.48 146.059 88.6133 146.299 88.88C146.566 89.1467 146.699 89.44 146.699 89.76C146.699 90.9867 146.179 91.6 145.139 91.6H137.339L137.499 102.08C137.499 103.44 137.033 104.12 136.099 104.12C135.193 104.12 134.659 103.507 134.499 102.28C134.419 101.88 134.366 98.4933 134.339 92.12C134.339 85.72 134.313 82.04 134.259 81.08C133.273 81.1867 132.779 80.6267 132.779 79.4C132.779 79.08 132.913 78.7333 133.179 78.36C133.446 77.96 133.673 77.7467 133.859 77.72C134.073 77.6933 134.326 77.68 134.619 77.68C134.939 77.68 135.699 77.7333 136.899 77.84C138.553 78 140.006 78.08 141.259 78.08ZM160.539 85.32C161.713 85.32 162.299 86.32 162.299 88.32C162.299 88.5333 162.299 88.76 162.299 89L162.219 91.8C162.193 92.68 162.179 93.5467 162.179 94.4L162.779 103.44C162.779 104.107 162.099 104.44 160.739 104.44C160.659 104.44 160.459 104.44 160.139 104.44C159.846 104.44 159.633 104.32 159.499 104.08C159.393 103.84 159.379 103.547 159.459 103.2C159.566 102.853 159.539 102.467 159.379 102.04C158.153 103.347 156.526 104 154.499 104C150.739 104 148.859 101.093 148.859 95.28C148.859 92.0533 149.459 89.6133 150.659 87.96C151.886 86.3067 153.633 85.48 155.899 85.48C156.966 85.48 158.033 85.6667 159.099 86.04C159.446 85.56 159.926 85.32 160.539 85.32ZM156.379 88.96C154.859 88.96 153.726 89.4 152.979 90.28C152.233 91.16 151.859 92.7733 151.859 95.12C151.859 99.0667 152.926 101.04 155.059 101.04C155.619 101.04 156.233 100.787 156.899 100.28C157.593 99.7733 158.073 99.2 158.339 98.56C158.846 97.12 159.099 95.5467 159.099 93.84C159.099 92.1333 158.886 90.8933 158.459 90.12C158.059 89.3467 157.366 88.96 156.379 88.96ZM165.723 90.4C165.723 88.8267 166.283 87.5733 167.403 86.64C168.523 85.7067 169.817 85.24 171.283 85.24C172.777 85.24 174.203 85.5067 175.563 86.04C176.923 86.5733 177.603 87.28 177.603 88.16C177.603 88.6133 177.43 88.9733 177.083 89.24C176.737 89.5067 176.43 89.64 176.163 89.64C175.923 89.64 175.723 89.64 175.563 89.64C175.43 89.6133 174.897 89.36 173.963 88.88C173.057 88.4 172.217 88.16 171.443 88.16C170.67 88.16 170.003 88.36 169.443 88.76C168.91 89.1333 168.643 89.6933 168.643 90.44C168.643 91.1867 168.95 91.7733 169.563 92.2C170.203 92.6267 171.31 93 172.883 93.32C174.457 93.6133 175.657 94.04 176.483 94.6C177.337 95.16 177.763 96.2 177.763 97.72C177.763 99.9333 177.177 101.507 176.003 102.44C174.857 103.347 173.457 103.8 171.803 103.8C170.15 103.8 168.737 103.573 167.563 103.12C166.417 102.667 165.843 101.987 165.843 101.08C165.843 100.04 166.363 99.52 167.403 99.52C167.67 99.52 168.257 99.7067 169.163 100.08C170.07 100.453 170.963 100.64 171.843 100.64C172.75 100.64 173.43 100.36 173.883 99.8C174.363 99.2133 174.603 98.5467 174.603 97.8C174.603 97.0533 174.297 96.52 173.683 96.2C173.07 95.8533 172.137 95.5733 170.883 95.36C169.63 95.1467 168.71 94.92 168.123 94.68C166.523 94.04 165.723 92.6133 165.723 90.4ZM181.434 85.32L183.434 85.36C183.887 85.36 184.141 85.3467 184.194 85.32V77.12C184.221 76.6667 184.447 76.28 184.874 75.96C185.301 75.64 185.701 75.48 186.074 75.48C186.447 75.48 186.741 75.6 186.954 75.84C187.194 76.08 187.301 76.4533 187.274 76.96C187.247 77.4667 187.234 80.24 187.234 85.28L191.914 85.12C192.714 85.12 193.114 85.5867 193.114 86.52C193.114 87.2133 192.901 87.7333 192.474 88.08C192.074 88.4267 191.634 88.6133 191.154 88.64C190.701 88.6667 190.247 88.68 189.794 88.68L187.354 88.64C187.354 89.7333 187.461 91.8933 187.674 95.12C187.914 98.3467 188.101 100.44 188.234 101.4C188.367 102.333 188.394 102.947 188.314 103.24C188.234 103.507 188.087 103.693 187.874 103.8C187.527 103.96 187.061 104.04 186.474 104.04C185.887 104.04 185.541 103.72 185.434 103.08C184.901 99.5867 184.541 94.7867 184.354 88.68C184.114 88.7067 183.194 88.72 181.594 88.72C179.994 88.72 179.194 88.2533 179.194 87.32C179.194 85.9867 179.941 85.32 181.434 85.32ZM196.824 78.72C197.304 78.72 197.757 78.9467 198.184 79.4C198.611 79.8533 198.824 80.3333 198.824 80.84C198.824 81.32 198.584 81.8133 198.104 82.32C197.651 82.8267 197.171 83.08 196.664 83.08C196.157 83.08 195.691 82.8667 195.264 82.44C194.864 82.0133 194.664 81.4667 194.664 80.8C194.664 79.52 195.357 78.8267 196.744 78.72C196.771 78.72 196.797 78.72 196.824 78.72ZM198.504 99.68L198.544 102.48C198.544 102.987 198.344 103.413 197.944 103.76C197.544 104.08 197.117 104.24 196.664 104.24C195.997 104.24 195.651 103.907 195.624 103.24C195.277 94.7333 195.104 90.0267 195.104 89.12C195.104 88.2133 195.144 87.1067 195.224 85.8C195.277 85.32 195.584 85.08 196.144 85.08C197.557 85.08 198.357 85.6533 198.544 86.8C198.624 87.3867 198.664 87.8533 198.664 88.2L198.504 90.72V99.68ZM204.649 102.76L204.209 86.52C204.209 86.0133 204.383 85.6 204.729 85.28C205.076 84.96 205.423 84.8 205.769 84.8C206.623 84.8 207.116 85.16 207.249 85.88C207.356 86.6 207.409 87.3467 207.409 88.12C208.849 86.2267 210.649 85.28 212.809 85.28C216.116 85.28 217.769 89.0533 217.769 96.6C217.769 97.2933 217.769 98.3467 217.769 99.76C217.769 101.147 217.689 102.16 217.529 102.8C217.343 103.6 216.769 104 215.809 104C215.169 104 214.849 103.573 214.849 102.72L214.889 100.48C214.889 97.3867 214.783 95.28 214.569 94.16C214.383 93.0133 214.196 92.1067 214.009 91.44C213.556 90 212.823 89.28 211.809 89.28C210.476 89.28 209.543 89.76 209.009 90.72C208.423 91.76 208.076 92.9867 207.969 94.4C207.783 96.88 207.689 99.5067 207.689 102.28C207.689 102.813 207.489 103.24 207.089 103.56C206.689 103.88 206.209 104.04 205.649 104.04C204.983 104.04 204.649 103.613 204.649 102.76ZM232.695 102.36C231.735 103.48 230.522 104.04 229.055 104.04C227.589 104.04 226.322 103.587 225.255 102.68C223.015 100.947 221.895 98.2933 221.895 94.72C221.895 91.92 222.669 89.68 224.215 88C225.762 86.2933 227.669 85.44 229.935 85.44C232.202 85.44 233.749 86.2133 234.575 87.76C235.295 89.12 235.655 91.1733 235.655 93.92L235.575 97.2C235.575 98.7467 235.642 100.893 235.775 103.64C235.935 106.36 236.015 108.413 236.015 109.8C236.015 112.093 235.442 113.773 234.295 114.84C233.175 115.933 231.455 116.48 229.135 116.48C227.749 116.48 226.335 116.187 224.895 115.6C223.455 115.013 222.735 114.333 222.735 113.56C222.735 113 222.882 112.573 223.175 112.28C223.495 111.987 223.855 111.84 224.255 111.84C224.655 111.84 225.549 112.133 226.935 112.72C228.349 113.307 229.362 113.6 229.975 113.6C231.895 113.6 232.855 112.027 232.855 108.88C232.855 105.733 232.802 103.56 232.695 102.36ZM232.655 93.92C232.655 91.9733 232.362 90.6133 231.775 89.84C231.215 89.04 230.322 88.64 229.095 88.64C227.869 88.64 226.882 89.2 226.135 90.32C225.389 91.44 225.015 92.8667 225.015 94.6C225.015 96.3067 225.362 97.6667 226.055 98.68C226.775 99.6933 227.869 100.2 229.335 100.2C230.802 100.2 231.749 99.5733 232.175 98.32C232.495 97.3067 232.655 95.84 232.655 93.92Z" fill="white"/>
</svg>
